<?xml version="1.0" encoding="UTF-8"?>
<svg width="32" height="32" viewBox="0 0 32 32" fill="none" xmlns="http://www.w3.org/2000/svg">
  <!-- Background Circle -->
  <circle cx="16" cy="16" r="16" fill="#FF4B2B"/>
  
  <!-- Letter S -->
  <path d="M22 12C22 10.8954 21.1046 10 20 10H12C10.8954 10 10 10.8954 10 12V14C10 15.1046 10.8954 16 12 16H20C21.1046 16 22 16.8954 22 18V20C22 21.1046 21.1046 22 20 22H12C10.8954 22 10 21.1046 10 20" 
        stroke="white" 
        stroke-width="2" 
        stroke-linecap="round" 
        stroke-linejoin="round"/>
  
  <!-- Connection Dots -->
  <circle cx="16" cy="12" r="2" fill="white"/>
  <circle cx="16" cy="20" r="2" fill="white"/>
  <circle cx="12" cy="16" r="2" fill="white"/>
  <circle cx="20" cy="16" r="2" fill="white"/>
</svg> 